<?xml version="1.0" encoding="UTF-8" standalone="no"?>
<!-- Created with Inkscape (http://www.inkscape.org/) -->

<svg
   xmlns:dc="http://purl.org/dc/elements/1.1/"
   xmlns:cc="http://creativecommons.org/ns#"
   xmlns:rdf="http://www.w3.org/1999/02/22-rdf-syntax-ns#"
   xmlns:svg="http://www.w3.org/2000/svg"
   xmlns="http://www.w3.org/2000/svg"
   xmlns:sodipodi="http://sodipodi.sourceforge.net/DTD/sodipodi-0.dtd"
   xmlns:inkscape="http://www.inkscape.org/namespaces/inkscape"
   width="16px"
   height="16px"
   id="svg5166"
   version="1.1"
   inkscape:version="0.48.4 r9939"
   sodipodi:docname="db.svg">
  <defs
     id="defs5168" />
  <sodipodi:namedview
     id="base"
     pagecolor="#ffffff"
     bordercolor="#666666"
     borderopacity="1.0"
     inkscape:pageopacity="0.0"
     inkscape:pageshadow="2"
     inkscape:zoom="22.197802"
     inkscape:cx="0.54430686"
     inkscape:cy="8.049777"
     inkscape:current-layer="layer1"
     showgrid="true"
     inkscape:grid-bbox="true"
     inkscape:document-units="px"
     inkscape:window-width="1366"
     inkscape:window-height="715"
     inkscape:window-x="0"
     inkscape:window-y="0"
     inkscape:window-maximized="1">
    <inkscape:grid
       type="xygrid"
       id="grid6140" />
  </sodipodi:namedview>
  <metadata
     id="metadata5171">
    <rdf:RDF>
      <cc:Work
         rdf:about="">
        <dc:format>image/svg+xml</dc:format>
        <dc:type
           rdf:resource="http://purl.org/dc/dcmitype/StillImage" />
      </cc:Work>
    </rdf:RDF>
  </metadata>
  <g
     id="layer1"
     inkscape:label="Layer 1"
     inkscape:groupmode="layer">
    <g
       id="g6415"
       transform="matrix(1.2738859,0,0,1.2138235,-1.8126042,-2.4816026)">
      <path
         id="rect6181"
         d="M 7.6875,2.125 C 6.4236621,2.125 5.2822873,2.374539 4.4375,2.75 4.015106,2.9377305 3.656099,3.1437123 3.40625,3.40625 3.2351205,3.5860703 3.1257225,3.7833796 3.0625,4 L 3,4 3,4.1875 C 3,4.207795 2.99883,4.229833 3,4.25 2.99883,4.270167 3,4.292205 3,4.3125 L 3,7.28125 3,10.375 3,13 c 0,0.329798 0.1564008,0.643712 0.40625,0.90625 0.2498492,0.262538 0.6088564,0.468519 1.03125,0.65625 0.8447873,0.375461 1.986162,0.625 3.25,0.625 1.2638379,0 2.405213,-0.249539 3.25,-0.625 0.422394,-0.187731 0.781401,-0.393712 1.03125,-0.65625 C 12.218599,13.643712 12.375,13.329798 12.375,13 l -0.03125,0 0,-2.40625 C 12.36232,10.51384 12.375,10.45745 12.375,10.375 l -0.03125,0 0,-2.84375 C 12.36232,7.45134 12.375,7.3636995 12.375,7.28125 l -0.03125,0 0,-2.84375 C 12.36232,4.35759 12.375,4.2699495 12.375,4.1875 12.3702,4.146205 12.35318,4.103069 12.34375,4.0625 l 0,-0.125 -0.03125,0 C 12.245024,3.7401455 12.126189,3.5716847 11.96875,3.40625 11.718901,3.1437123 11.359894,2.9377305 10.9375,2.75 10.092713,2.374539 8.951338,2.125 7.6875,2.125 z m 0,0.375 c 1.2214434,0 2.341108,0.2141034 3.125,0.5625 0.391946,0.1741983 0.700674,0.3777343 0.90625,0.59375 C 11.906235,3.8532563 11.98747,4.0478315 12,4.25 11.987471,4.4521685 11.906239,4.6467437 11.71875,4.84375 11.513174,5.0597657 11.204446,5.2633018 10.8125,5.4375 10.028608,5.7858967 8.9089434,6 7.6875,6 6.4660566,6 5.3463924,5.7858967 4.5625,5.4375 4.1705538,5.2633018 3.8618256,5.0597657 3.65625,4.84375 3.4687651,4.6467437 3.3875296,4.4521685 3.375,4.25 3.3875296,4.0478315 3.4687647,3.8532563 3.65625,3.65625 3.861826,3.4402343 4.170554,3.2366983 4.5625,3.0625 5.3463924,2.7141034 6.4660566,2.5 7.6875,2.5 z M 3.34375,5 C 3.368537,5.029594 3.37919,5.065316 3.40625,5.09375 3.6560992,5.3562878 4.0151064,5.5622696 4.4375,5.75 c 0.8447873,0.375461 1.986162,0.625 3.25,0.625 1.2638379,0 2.405213,-0.249539 3.25,-0.625 C 11.359894,5.5622696 11.718901,5.3562878 11.96875,5.09375 11.98544,5.076216 11.98417,5.049232 12,5.03125 l 0,2.25 c 0,0.2224868 -0.07567,0.4402343 -0.28125,0.65625 -0.205576,0.2160157 -0.514304,0.4195517 -0.90625,0.59375 -0.783892,0.3483966 -1.9035566,0.5625 -3.125,0.5625 -1.2214434,0 -2.3411076,-0.2141034 -3.125,-0.5625 C 4.1705538,8.3570517 3.8618256,8.1535157 3.65625,7.9375 3.4506744,7.7214843 3.375,7.5037368 3.375,7.28125 l -0.03125,0 0,-2.28125 z m 0,3.09375 c 0.025961,0.031212 0.034017,0.063821 0.0625,0.09375 0.2498492,0.2625377 0.6088564,0.4685195 1.03125,0.65625 0.8447873,0.375461 1.986162,0.625 3.25,0.625 1.2638379,0 2.405213,-0.249539 3.25,-0.625 C 11.359894,8.6560195 11.718901,8.4500377 11.96875,8.1875 11.979743,8.1759483 11.989374,8.1679976 12,8.15625 l 0,2.21875 c 0,0.222487 -0.07567,0.440234 -0.28125,0.65625 -0.205576,0.216016 -0.514304,0.419552 -0.90625,0.59375 -0.783892,0.348397 -1.9035566,0.5625 -3.125,0.5625 -1.2214434,0 -2.3411076,-0.214103 -3.125,-0.5625 C 4.1705538,11.450802 3.8618256,11.247266 3.65625,11.03125 3.4506744,10.815234 3.375,10.597487 3.375,10.375 l -0.03125,0 0,-2.28125 z m 0,3.09375 c 0.024787,0.02959 0.03544,0.06532 0.0625,0.09375 0.2498492,0.262538 0.6088564,0.468519 1.03125,0.65625 0.8447873,0.375461 1.986162,0.625 3.25,0.625 1.2638379,0 2.405213,-0.249539 3.25,-0.625 0.422394,-0.187731 0.781401,-0.393712 1.03125,-0.65625 C 11.98544,11.26372 11.98417,11.23673 12,11.21875 L 12,13 c 0,0.222487 -0.07567,0.440234 -0.28125,0.65625 -0.205576,0.216016 -0.514304,0.419552 -0.90625,0.59375 -0.783892,0.348397 -1.9035566,0.5625 -3.125,0.5625 -1.2214434,0 -2.3411076,-0.214103 -3.125,-0.5625 C 4.1705538,14.075802 3.8618256,13.872266 3.65625,13.65625 3.4506744,13.440234 3.375,13.222487 3.375,13 l -0.03125,0 0,-1.8125 z"
         style="fill:#32a028;fill-opacity:1;stroke:none"
         inkscape:connector-curvature="0" />
      <path
         inkscape:connector-curvature="0"
         id="path6391"
         d="M 6.7296039,5.9304086 C 5.8073617,5.836962 4.8209763,5.5727422 4.2920704,5.2774747 3.9458653,5.0842019 3.5866889,4.763735 3.491537,4.5632173 3.099161,3.7363464 4.3144339,2.9139275 6.3692079,2.6157939 c 0.6497895,-0.09428 1.9949845,-0.09439 2.6438703,-2.171e-4 1.4901638,0.2162687 2.5582798,0.7140268 2.8783088,1.3413344 0.111068,0.2177121 0.109199,0.3680425 -0.0076,0.6092661 C 11.60851,5.1348753 10.53378,5.6437768 9.1397525,5.8655327 8.6111037,5.9496278 7.2743896,5.9856093 6.7296039,5.9304086 z"
         style="fill:#78be5a;fill-opacity:1;stroke:#000000;stroke-width:0.01590247;stroke-linecap:butt;stroke-linejoin:round;stroke-miterlimit:4;stroke-opacity:1;stroke-dasharray:none" />
      <path
         inkscape:connector-curvature="0"
         id="path6393"
         d="M 7.2251485,9.0570399 C 5.4192929,8.967396 3.8813905,8.396513 3.4962325,7.6728331 3.4024072,7.496543 3.3960411,7.4203738 3.3812237,6.2967585 L 3.365538,5.1073038 3.5384125,5.2434765 c 0.8936919,0.703958 2.4905298,1.1394869 4.1749965,1.1387078 1.5907827,-7.358e-4 3.339935,-0.4767298 4.080147,-1.110324 l 0.184315,-0.157767 -9.89e-4,1.1635352 c -8.76e-4,1.0296932 -0.01046,1.1842634 -0.08329,1.3437331 C 11.608879,8.2446929 10.484816,8.7751087 9.035603,8.9699698 8.5412243,9.036444 7.6620304,9.078727 7.2251485,9.0570399 z"
         style="fill:#78be5a;fill-opacity:1;stroke:#000000;stroke-width:0.01590247;stroke-linecap:butt;stroke-linejoin:round;stroke-miterlimit:4;stroke-opacity:1;stroke-dasharray:none" />
      <path
         inkscape:connector-curvature="0"
         id="path6395"
         d="M 6.3016336,12.059579 C 5.0888483,11.869769 4.2387681,11.54546 3.7655772,11.092063 3.3962306,10.738167 3.3986202,10.74861 3.3811445,9.4120795 3.3726402,8.7616772 3.3815172,8.22953 3.400871,8.22953 c 0.019354,0 0.086979,0.04932 0.1502778,0.1095993 0.4477708,0.4264132 1.6545217,0.8696165 2.9081581,1.068079 0.5439852,0.086118 1.9698608,0.075165 2.5636457,-0.019694 1.1515714,-0.1839656 2.1588264,-0.549719 2.7440154,-0.9964039 l 0.210903,-0.1609858 -9.91e-4,1.1597272 c -0.0011,1.3471062 -0.01081,1.3881052 -0.409527,1.7375232 -0.515058,0.451378 -1.437057,0.787403 -2.6059893,0.949757 -0.7048487,0.0979 -1.9756472,0.08951 -2.6597301,-0.01755 z"
         style="fill:#78be5a;fill-opacity:1;stroke:#000000;stroke-width:0.01590247;stroke-linecap:butt;stroke-linejoin:round;stroke-miterlimit:4;stroke-opacity:1;stroke-dasharray:none" />
      <path
         inkscape:connector-curvature="0"
         id="path6397"
         d="M 7.2476733,14.776421 C 5.4605459,14.696716 3.947372,14.145555 3.5200797,13.418677 3.3967043,13.2088 3.395843,13.201565 3.3800842,12.242756 l -0.015856,-0.964745 0.1905138,0.163073 c 0.2224663,0.190423 0.7451862,0.470422 1.1914565,0.638214 1.4583564,0.548324 3.4769036,0.645066 5.0918216,0.244035 0.7596289,-0.188638 1.5307359,-0.527096 1.9371289,-0.850253 l 0.180198,-0.14329 0.01264,0.893806 c 0.01498,1.05903 -0.0082,1.15291 -0.368068,1.493292 -0.359407,0.339912 -0.991465,0.632932 -1.8097061,0.838973 -0.5963933,0.150178 -1.7930586,0.253987 -2.5425373,0.22056 z"
         style="fill:#78be5a;fill-opacity:1;stroke:#000000;stroke-width:0.01590247;stroke-linecap:butt;stroke-linejoin:round;stroke-miterlimit:4;stroke-opacity:1;stroke-dasharray:none" />
    </g>
  </g>
</svg>
